# xmcd
#
# Track frame offsets: 
#        150
#        13024
#        24254
#        31852
#        42103
#        55425
#        66267
#        83933
#        97527
#        108605
#        120851
#        133193
#        145283
#        159993
#        172371
#        185061
#        196295
#        208994
#
# Disc length: 2917 seconds
#
# Revision: 0
# Processed by: cddbd v1.5.2PL0 Copyright (c) Steve Scherf et al.
# Submitted via: ExactAudioCopy v0.99pb4
#
DISCID=fb0b6312
DTITLE=Dick Hipple - Good Old Country
DYEAR=1900
DGENRE=Classic Country
TTITLE0=Walkin' the Floor Over You
TTITLE1=I Can't Stop Lovin' You
TTITLE2=Wabash Cannonball
TTITLE3=Release Me
TTITLE4=Make the World Go Away
TTITLE5=He'll Have to Go
TTITLE6=Cold, Cold Heart
TTITLE7=Wedding Bells
TTITLE8=Why Don't You Love Me
TTITLE9=Take These Chains From My Heart
TTITLE10=If We Make it Through December
TTITLE11=Welcome to My World
TTITLE12=He Stopped Loving Her Today
TTITLE13=Okie From Muskogee
TTITLE14=Lovesick Blues
TTITLE15=I Can't Help it
TTITLE16=Waltz Across Texas
TTITLE17=What's He Doin' in My World
EXTD=
EXTT0=
EXTT1=
EXTT2=
EXTT3=
EXTT4=
EXTT5=
EXTT6=
EXTT7=
EXTT8=
EXTT9=
EXTT10=
EXTT11=
EXTT12=
EXTT13=
EXTT14=
EXTT15=
EXTT16=
EXTT17=
PLAYORDER=
